<svg xmlns="http://www.w3.org/2000/svg"  width="190" height="60" viewBox="900 10 200 280"><g ><path fill="#9c4bc5" d="M1088.116 215.34q.48.83.48 2.03 0 1.79-1.26 3.11-1.25 1.32-3.29 1.32-1.31 0-2.33-.6t-1.62-1.8q-2.27-4.42-4-11.06-1.74-6.64-2.99-14.78-1.26-8.13-2.04-17.52t-1.25-19.44q-8.98 1.2-20.16 2.63-11.19 1.44-25.54 3.35-10.05 1.44-20.46 2.51-25.6 27.88-53.89 42.29-28.29 14.42-56.77 14.42-12.68 0-21.95-2.46-9.27-2.45-15.31-5.5t-9.09-5.68-3.29-2.87q-1.2-1.2-1.2-3.11 0-1.92 1.32-3.23 1.31-1.32 3.11-1.32 2.03 0 3.35 1.44.24.24 2.87 2.45t7.84 4.72q5.2 2.52 13.21 4.55 8.02 2.03 19.03 2.03 15.07 0 28.83-4.06 13.75-4.07 26.02-10.59 12.26-6.52 22.84-14.89 10.59-8.38 19.2-16.99-8.49.72-16.86 1.08-8.38.35-16.51.35-16.03 0-30.51-1.79-14.47-1.79-25.48-6.04-11-4.25-17.52-11.31-6.52-7.05-6.52-17.58 0-4.79 1.97-9.57 1.97-4.79 4.73-8.68 2.75-3.88 5.74-6.34 2.99-2.45 5.14-2.45 1.68 0 3.11 1.2 1.44 1.19 1.44 3.23 0 1.08-.48 2.09-.48 1.02-1.44 1.62-.24.24-2.03 1.67-1.79 1.44-3.83 3.89-2.03 2.45-3.71 5.86-1.67 3.41-1.67 7.36 0 6.82 4.72 12.02 4.73 5.21 13.76 8.73 9.03 3.53 22.19 5.33 13.16 1.79 30.03 1.79 9.69 0 20.46-.6 10.76-.59 22.73-1.79 5.74-6.34 10.16-11.96 4.43-5.63 7.54-10.05 5.14-7.3 10.77-15.55 5.62-8.26 11.18-16.75 5.57-8.5 10.89-16.81t9.99-15.67q4.66-7.36 8.37-13.4t6.1-9.99q.72-3.23 2.16-5.92 1.43-2.69 4.66-2.69 1.8 0 3.47 1.49 1.68 1.5 1.68 3.77 0 1.68-1.2 3.59t-2.27 3.23q-.36 2.27-1.14 9.69t-1.56 18.12q-.77 10.71-1.31 23.57t-.54 26.02v9.69q0 4.79.24 9.69 17.94-2.27 26.2-3.17 8.25-.9 8.73-.9 1.56 0 3.05 1.26 1.5 1.26 1.5 3.29 0 1.67-1.14 2.93t-2.93 1.5q-2.15.23-5.02.59-2.88.36-7.06.84-4.19.48-9.81 1.14t-13.16 1.61q.36 9.81 1.14 18.84.77 9.04 1.91 16.81 1.14 7.78 2.69 14 1.56 6.22 3.59 10.17m-65.2-61.73q14.12-1.92 25.66-3.41 11.55-1.5 20.88-2.69-.12-5.15-.18-10.29-.06-5.15-.06-10.41 0-16.87.6-32.24.59-15.37 1.67-26.74-4.78 7.54-10.59 16.69-5.8 9.15-12.02 18.66-6.22 9.52-12.56 18.85t-12.08 17.46q-2.87 4.07-5.86 7.9t-5.99 7.53q2.64-.24 5.21-.59 2.57-.36 5.32-.72"/><path fill="#9c4bc5" d="M1185.726 182.79q-1.32 2.75-3.29 6.52-1.98 3.77-4.49 7.83-2.51 4.07-5.62 8.08t-6.76 7.18-7.78 5.14q-4.12 1.97-8.79 1.97-7.18 0-12.32-4.42-5.15-4.43-8.73-11.61-3.59-7.17-5.81-16.33-2.21-9.15-3.41-18.66-1.19-9.51-1.61-18.48t-.42-15.91q0-10.05.66-20.82.66-10.76 2.09-21.05 1.44-10.29 3.65-19.5t5.26-16.15q3.06-6.94 7-11.01 3.95-4.06 8.98-4.06 3.94 0 7.11 1.85t5.33 6.04q2.15 4.19 3.35 10.89 1.19 6.7 1.19 16.39 0 11.96-2.51 24.7t-6.82 25.66-10.17 25.78-12.56 25.06q2.99 15.2 8.02 23.87 5.02 8.67 12.08 8.67 4.78 0 9.21-3.77 4.43-3.76 8.14-8.91 3.7-5.14 6.52-10.47 2.81-5.32 4.36-8.55.6-1.2 1.68-1.85 1.07-.66 2.39-.66 2.03 0 3.29 1.43 1.26 1.44 1.26 3.23 0 .72-.48 1.92m-59.94-48.09q0 7.65.36 14.71t.96 13.52q5.02-9.69 9.57-20.64 4.54-10.94 8.01-22.13 3.47-11.18 5.57-22.25 2.09-11.06 2.09-21.11 0-14.12-2.27-20.22-2.28-6.1-6.1-6.1-2.52 0-4.85 3.47t-4.37 9.45q-2.03 5.98-3.7 14.11-1.68 8.14-2.81 17.47-1.14 9.33-1.8 19.5t-.66 20.22"/><path fill="#9c4bc5" d="M1197.086 122.02q0 4.54-3.17 7.71t-7.71 3.17q-4.55 0-7.72-3.17t-3.17-7.71q0-2.28.84-4.25.83-1.97 2.33-3.47 1.49-1.5 3.47-2.33 1.97-.84 4.25-.84 2.27 0 4.24.84 1.98.83 3.47 2.33 1.5 1.5 2.33 3.47.84 1.97.84 4.25m-19.38 70.1q0-17.23 2.16-34.33.23-1.68 1.49-2.94 1.26-1.25 3.29-1.25 1.79 0 2.99 1.37 1.2 1.38 1.2 3.17 0 .72-.3 4.31t-.72 8.55q-.42 4.97-.72 10.53t-.3 10.23q0 6.34 1.26 10.23t3.23 6.04 4.19 2.87q2.21.72 4.24.72 3.35 0 6.94-2.39 3.59-2.4 7.36-6.7 3.77-4.31 7.6-10.35 3.82-6.04 7.53-13.46.6-1.2 1.68-1.85 1.07-.66 2.39-.66 1.91 0 3.17 1.43 1.26 1.44 1.26 3.11 0 1.2-.48 2.04-1.44 2.75-3.59 6.7-2.15 3.94-4.91 8.13-2.75 4.19-6.04 8.32-3.29 4.12-7 7.41-3.7 3.29-7.77 5.33-4.07 2.03-8.26 2.03-5.38 0-9.45-2.27-4.06-2.28-6.88-6.1-2.81-3.83-4.18-9.04-1.38-5.2-1.38-11.18m12.68-70.1q0-1.68-1.25-2.93-1.26-1.26-2.93-1.26-1.68 0-2.88 1.26-1.19 1.25-1.19 2.93 0 1.67 1.19 2.87 1.2 1.19 2.88 1.19 1.67 0 2.93-1.19 1.25-1.2 1.25-2.87m-398.969-18.336c44.443 42.036 60.14 103.904-27.56 158.584q18.475-25.018 20.68-49.731c3.22-35.663-18.985-64.647-43.529-90.683-35.9-38.171-38.578-74.986-8.407-115.87-6.204 53.766 27.764 68.343 58.816 97.7m-96.513 197.027c20.95-44.274 24.645-68.817-27.798-118.447a172.9 172.9 0 0 1-32.883-40.985c-9.797 21.832-17.526 68.071 10.95 94.717 19.323 17.967 45.765 28.815 49.731 64.715m38.714-171.873C704.701 98.057 683.751 55.004 724.431-.05c-110.175 43.053-116.514 112.31-50.34 174.924 55.764 52.748 52.883 81.868 30 130.176 108.073-79.665 70.173-133.024 29.493-176.246"/></g></svg>